<svg xmlns="http://www.w3.org/2000/svg" xmlns:xlink="http://www.w3.org/1999/xlink" width="2000" zoomAndPan="magnify" viewBox="0 0 1500 1499.999933" height="2000" preserveAspectRatio="xMidYMid meet" version="1.0"><defs><g/><clipPath id="172db153e4"><path d="M 420.148438 659 L 644 659 L 644 938.726562 L 420.148438 938.726562 Z M 420.148438 659 " clip-rule="nonzero"/></clipPath></defs><g clip-path="url(#172db153e4)"><path fill="#5acaff" d="M 640.074219 790.464844 C 639.113281 790.320312 638.042969 790.390625 637.082031 790.5 C 631.351562 791.175781 625.65625 791.957031 619.925781 792.5625 C 615.941406 792.988281 611.917969 793.203125 607.898438 793.488281 C 608.074219 792.917969 608.324219 792.847656 608.574219 792.8125 C 612.59375 792.101562 616.6875 791.496094 620.640625 790.605469 C 623.488281 789.964844 625.015625 788.007812 624.839844 785.871094 C 624.660156 783.523438 622.917969 782.0625 620.285156 781.636719 C 618.183594 781.28125 615.941406 781.421875 613.769531 781.53125 C 604.980469 781.886719 596.222656 782.3125 587.429688 782.667969 C 586.46875 782.703125 585.507812 782.527344 584.546875 782.453125 C 587.714844 781.8125 590.882812 781.636719 594.015625 781.246094 C 597.539062 780.816406 599.210938 779.324219 599 777.082031 C 598.785156 774.765625 597.042969 773.769531 593.304688 773.664062 C 577.464844 773.234375 561.839844 771.777344 546.75 767.578125 C 543.796875 766.757812 540.875 765.761719 537.957031 764.835938 C 538.597656 764.375 539.027344 764.445312 539.453125 764.480469 C 548.527344 765.65625 558.460938 768.21875 567.640625 766.828125 C 568.710938 766.652344 569.992188 766.152344 569.992188 765.085938 C 569.992188 764.019531 568.675781 763.519531 567.605469 763.269531 C 559.632812 761.597656 551.769531 759.355469 544.117188 756.613281 C 540.164062 755.191406 536.25 753.625 532.371094 751.917969 C 529.878906 750.8125 523.4375 749.035156 522.15625 746.578125 C 521.976562 745.6875 524.183594 746.792969 525.820312 747.394531 C 535.609375 751.027344 546.25 751.597656 556.5 753.625 C 558.53125 754.015625 561.023438 754.371094 562.089844 752.34375 C 563.191406 750.242188 560.738281 749.460938 559.101562 748.605469 C 552.230469 745.046875 545.324219 741.523438 538.457031 738 C 532.15625 734.761719 524.644531 732.054688 519.058594 727.640625 C 527.28125 728.746094 535.539062 729.847656 543.757812 730.988281 C 544.542969 731.09375 545.71875 730.738281 545.433594 730.027344 C 538.101562 726.289062 530.734375 722.515625 523.402344 718.78125 C 529.878906 719.5625 536.355469 720.347656 542.796875 721.09375 C 543.867188 721.234375 545.289062 721.09375 545.46875 720.0625 C 545.609375 719.3125 544.933594 718.671875 544.328125 718.210938 C 541.589844 716.21875 538.527344 714.792969 535.464844 713.371094 C 530.019531 710.84375 524.574219 708.316406 519.164062 705.789062 C 521.441406 705.363281 523.792969 705.644531 526.105469 705.929688 C 529.34375 706.324219 532.617188 706.714844 535.894531 707.105469 C 538.3125 707.390625 542.691406 708.886719 544.757812 707.140625 C 545.433594 706.570312 545.929688 705.789062 546.320312 705.003906 C 547.925781 701.945312 548.742188 698.5625 549.277344 695.144531 C 549.847656 691.65625 550.769531 688.492188 551.804688 685.109375 C 553.867188 678.238281 555.96875 671.371094 558.101562 664.5 C 558.566406 663.042969 558.351562 662.402344 556.75 661.902344 C 546 658.523438 535.714844 658.949219 525.964844 664.894531 C 525.394531 665.25 524.183594 665.25 523.648438 664.894531 C 514.109375 659.054688 504.039062 658.558594 493.46875 661.6875 C 491.507812 662.257812 491.046875 663.007812 491.652344 664.929688 C 493.609375 671.191406 495.496094 677.492188 497.382812 683.792969 C 498.378906 687.03125 499.339844 690.304688 500.300781 693.542969 C 500.726562 694.96875 501.191406 696.355469 501.617188 697.78125 C 502.007812 699.132812 502.6875 700.308594 503.253906 701.625 C 504.039062 703.4375 505.605469 704.578125 507.207031 705.398438 C 509.414062 706.535156 511.65625 707.605469 513.898438 708.636719 C 516.140625 709.667969 518.417969 710.699219 520.695312 711.695312 C 522.511719 712.515625 525.179688 714.4375 527.136719 714.652344 C 523.328125 714.257812 519.554688 713.867188 515.75 713.441406 C 513.863281 713.226562 510.941406 712.621094 510.125 713.9375 C 508.738281 715.898438 512.972656 717.140625 514.964844 718.03125 C 522.617188 721.414062 530.269531 724.757812 537.921875 728.140625 C 537.386719 729.101562 533.011719 728.140625 530.554688 727.75 C 530.449219 727.714844 530.339844 727.714844 530.199219 727.679688 C 525.570312 726.894531 520.910156 726.148438 516.28125 725.363281 C 514.074219 725.007812 511.832031 725.328125 514.148438 727.535156 C 514.503906 727.855469 515.035156 728.070312 515.464844 728.320312 C 526.570312 734.617188 537.636719 740.882812 548.742188 747.183594 C 549.417969 747.574219 550.023438 748 550.664062 748.429688 C 538.953125 747.003906 527.421875 744.015625 515.925781 741.453125 C 514.148438 741.0625 512.296875 740.667969 510.515625 741.132812 C 508.523438 741.664062 512.1875 743.550781 512.722656 743.90625 C 513.753906 744.511719 514.789062 745.152344 515.855469 745.6875 C 518.703125 747.113281 521.585938 748.535156 524.46875 749.921875 C 530.199219 752.734375 535.964844 755.546875 541.695312 758.359375 C 543.582031 759.285156 545.539062 760.03125 547.460938 760.851562 C 547.355469 761.097656 547.210938 761.3125 547.105469 761.5625 C 543.046875 760.457031 538.742188 759.746094 534.96875 758.179688 C 526 754.445312 517.242188 750.316406 508.453125 746.257812 C 506.457031 745.332031 501.085938 744.832031 502.082031 748.75 C 502.292969 749.53125 502.863281 750.136719 503.46875 750.707031 C 507.027344 754.195312 510.835938 757.398438 514.859375 760.316406 C 509.164062 758.855469 504.679688 754.40625 499.089844 752.519531 C 497.417969 751.953125 495.53125 751.632812 493.859375 752.164062 C 492.148438 752.734375 490.726562 754.371094 490.90625 756.152344 C 491.046875 757.648438 492.257812 758.820312 493.394531 759.816406 C 496.03125 762.167969 498.628906 764.550781 501.261719 766.902344 C 497.488281 764.90625 493.679688 762.914062 489.90625 760.921875 C 488.34375 760.101562 486.703125 759.25 484.960938 759.175781 C 482.894531 759.070312 480.652344 760.351562 480.226562 762.378906 C 479.730469 764.730469 481.6875 766.792969 483.464844 768.359375 C 502.4375 784.554688 526.53125 793.988281 551.128906 798.007812 C 550.734375 798.398438 550.128906 798.363281 549.5625 798.257812 C 536.355469 796.265625 523.257812 793.417969 510.621094 789.109375 C 504.289062 786.9375 498.058594 784.375 492.078125 781.386719 C 486.207031 778.433594 480.972656 774.625 475.316406 771.351562 C 473.640625 770.351562 471.753906 769.5 469.761719 769.640625 C 468.339844 769.75 472.46875 774.269531 472.609375 774.410156 C 474.496094 776.261719 476.453125 778.042969 478.554688 779.679688 C 489.054688 787.757812 501.546875 793.308594 514.429688 798.292969 C 530.234375 804.414062 546.855469 808.222656 564.191406 809.933594 C 566.148438 810.109375 568.105469 810.429688 570.097656 810.679688 C 570.0625 810.859375 570.027344 811.035156 569.992188 811.214844 C 566.644531 810.964844 563.265625 810.75 559.917969 810.464844 C 545.433594 809.257812 531.335938 806.65625 517.671875 802.566406 C 496.171875 796.15625 476.703125 786.832031 459.691406 774.234375 C 457.269531 772.453125 454.921875 772.238281 453.035156 773.554688 C 451.078125 774.910156 451.003906 776.902344 452.964844 779.214844 C 458.835938 786.296875 465.882812 792.457031 474.140625 797.722656 C 476.132812 799.003906 478.125 800.25 480.085938 801.53125 C 479.90625 801.710938 479.765625 801.886719 479.585938 802.066406 C 475.636719 799.824219 471.648438 797.652344 467.769531 795.339844 C 459.296875 790.320312 450.863281 785.265625 442.390625 780.210938 C 440.648438 779.179688 438.867188 778.824219 437.089844 780 C 435.308594 781.171875 435.414062 782.8125 436.269531 784.339844 C 436.980469 785.550781 437.90625 786.691406 438.941406 787.757812 C 445.84375 794.699219 454.101562 800.359375 463 805.449219 C 466.628906 807.511719 470.296875 809.46875 473.960938 811.5 C 455.0625 805.519531 437.90625 796.550781 420.148438 788.398438 C 420.644531 789.144531 421.355469 789.644531 422.140625 790.070312 C 430.183594 794.414062 438.15625 798.828125 446.273438 803.097656 C 454.351562 807.335938 462.464844 811.535156 471.113281 814.488281 C 475.316406 815.910156 479.585938 817.050781 483.855469 818.082031 C 487.664062 819.007812 495.851562 822.425781 499.445312 820.113281 C 499.695312 819.933594 499.945312 819.71875 500.085938 819.433594 C 500.335938 818.902344 500.160156 818.261719 499.765625 817.832031 C 499.375 817.40625 498.839844 817.121094 498.308594 816.910156 C 497.347656 816.480469 496.351562 816.089844 495.390625 815.734375 C 495.070312 815.519531 494.785156 815.308594 494.464844 815.09375 C 495.316406 814.738281 495.851562 814.773438 496.351562 814.914062 C 500.125 815.984375 503.859375 817.050781 507.632812 818.117188 C 507.667969 836.589844 522.441406 882.257812 522.441406 882.257812 C 519.554688 847.519531 520.695312 828.652344 521.371094 821.820312 C 522.367188 822.035156 523.648438 822.320312 525.429688 822.675781 C 526.070312 836.414062 529.378906 915.144531 521.371094 938.421875 C 521.371094 938.421875 553.226562 857.945312 540.09375 825.023438 C 545.21875 825.769531 550.378906 826.445312 555.539062 826.910156 C 558.742188 827.195312 562.195312 826.375 565.363281 825.59375 C 567.605469 825.058594 568.816406 823.386719 568.320312 821.285156 C 567.820312 819.1875 566.003906 818.367188 563.621094 818.082031 C 559.988281 817.621094 556.359375 817.265625 552.765625 816.625 C 545.539062 815.378906 538.347656 813.953125 531.160156 812.636719 C 531.230469 812.421875 531.265625 812.210938 531.335938 812.03125 C 531.835938 812.101562 532.335938 812.140625 532.832031 812.210938 C 538.242188 812.992188 543.652344 813.847656 549.0625 814.558594 C 560.308594 816.054688 571.664062 816.160156 582.984375 815.554688 C 588.605469 815.269531 594.265625 814.808594 599.890625 814.273438 C 602.699219 814.027344 605.511719 813.742188 608.324219 813.457031 C 610.921875 813.207031 613.449219 813.171875 615.835938 812.03125 C 616.441406 811.746094 617.007812 811.460938 617.578125 811.140625 C 618.113281 810.859375 618.503906 810.394531 618.964844 809.96875 C 619.214844 809.753906 619.464844 809.539062 619.5 809.21875 C 619.535156 808.863281 619.285156 808.367188 618.964844 808.152344 C 618.753906 808.011719 618.503906 807.976562 618.253906 807.902344 C 617.507812 807.726562 616.722656 807.691406 615.976562 807.691406 C 614.089844 807.65625 612.238281 807.726562 610.351562 807.832031 C 610.175781 807.832031 610.03125 807.832031 609.855469 807.867188 C 606.4375 808.046875 603.058594 808.222656 599.640625 808.332031 C 584.941406 808.863281 570.277344 808.296875 555.789062 806.230469 C 543.011719 804.449219 530.625 801.425781 518.773438 797.117188 C 517.671875 796.726562 516.601562 796.335938 515.535156 795.875 C 514.574219 795.445312 513.648438 794.984375 512.722656 794.519531 C 529.453125 800.144531 546.75 803.3125 564.6875 804.59375 C 589.710938 806.335938 614.019531 802.8125 638.222656 798.222656 C 640 797.902344 641.851562 796.691406 642.921875 795.445312 C 644.808594 793.273438 643.3125 790.925781 640.074219 790.464844 Z M 497.347656 816.765625 C 496.8125 816.625 496.351562 816.375 495.886719 816.089844 C 496.386719 816.304688 496.882812 816.550781 497.347656 816.765625 Z M 497.347656 816.765625 " fill-opacity="1" fill-rule="nonzero"/></g><path fill="#5acaff" d="M 438.902344 593.53125 C 444.066406 597.265625 448.90625 601.574219 454.421875 604.707031 C 472.039062 614.671875 489.265625 612.679688 505.78125 601.75 C 513.71875 596.484375 521.265625 590.574219 529.378906 585.59375 C 540.628906 578.652344 552.65625 573.3125 566.074219 572.636719 C 570.917969 572.386719 575.933594 573.277344 580.667969 574.378906 C 586.328125 575.699219 589.070312 579.863281 589.390625 585.664062 C 589.957031 596.09375 585.828125 604.8125 579.351562 612.570312 C 570.277344 623.425781 558.351562 630.15625 545.503906 635.421875 C 542.371094 636.703125 539.132812 637.769531 535.929688 638.875 C 534.503906 639.371094 532.832031 640.261719 531.800781 638.304688 C 530.875 636.453125 532.511719 635.742188 533.652344 634.851562 C 544.792969 626.027344 543.9375 609.191406 531.976562 601.894531 C 522.722656 596.234375 510.621094 598.941406 504.820312 607.945312 C 498.804688 617.234375 501.367188 629.550781 510.550781 635.636719 C 511.15625 636.027344 511.796875 636.417969 512.4375 636.773438 C 514.394531 637.84375 515.035156 639.550781 514.679688 641.652344 C 514.324219 643.679688 513.007812 644.855469 510.980469 645.175781 C 492.507812 647.984375 475.457031 644.996094 461.007812 632.46875 C 448.976562 622.039062 442.925781 608.230469 438.902344 593.53125 Z M 438.902344 593.53125 " fill-opacity="1" fill-rule="nonzero"/><path fill="#5acaff" d="M 538.277344 574.59375 C 528.597656 579.078125 519.128906 583.636719 509.519531 587.835938 C 505.640625 589.507812 501.441406 590.398438 497.417969 591.644531 C 494.035156 581.890625 499.304688 571 508.949219 566.515625 C 519.664062 561.566406 532.726562 565.234375 538.277344 574.59375 Z M 538.277344 574.59375 " fill-opacity="1" fill-rule="nonzero"/><g fill="#5acaff" fill-opacity="1"><g transform="translate(668.201514, 776.499921)"><g><path d="M 135.953125 -17.40625 L 135.953125 -75.171875 C 126.515625 -75.171875 117.425781 -74.898438 108.6875 -74.359375 C 99.945312 -73.816406 91.863281 -72.421875 84.4375 -70.171875 C 77.019531 -67.929688 70.523438 -64.257812 64.953125 -59.15625 L 64.953125 -77.03125 L 153.578125 -77.03125 L 153.578125 -28.53125 C 148.628906 -22.195312 142.554688 -16.707031 135.359375 -12.0625 C 128.171875 -7.425781 120.25 -4.023438 111.59375 -1.859375 C 100.769531 1.390625 90.054688 2.28125 79.453125 0.8125 C 68.859375 -0.65625 58.957031 -4.09375 49.75 -9.5 C 40.550781 -14.914062 32.585938 -21.914062 25.859375 -30.5 C 19.140625 -39.09375 14.234375 -48.878906 11.140625 -59.859375 C 8.203125 -70.835938 7.503906 -81.703125 9.046875 -92.453125 C 10.597656 -103.203125 14.078125 -113.253906 19.484375 -122.609375 C 24.898438 -131.960938 31.859375 -139.960938 40.359375 -146.609375 C 48.867188 -153.265625 58.691406 -158.066406 69.828125 -161.015625 C 80.035156 -163.796875 89.195312 -164.992188 97.3125 -164.609375 C 105.4375 -164.222656 112.476562 -162.867188 118.4375 -160.546875 C 124.394531 -158.222656 129.382812 -155.628906 133.40625 -152.765625 C 137.425781 -149.910156 140.398438 -147.398438 142.328125 -145.234375 C 144.265625 -143.066406 145.234375 -141.984375 145.234375 -141.984375 L 145.234375 -117.859375 C 145.078125 -118.472656 143.914062 -120.675781 141.75 -124.46875 C 139.582031 -128.257812 136.488281 -132.628906 132.46875 -137.578125 C 128.445312 -142.523438 123.457031 -147.160156 117.5 -151.484375 C 111.550781 -155.816406 104.628906 -158.910156 96.734375 -160.765625 C 88.847656 -162.628906 79.957031 -162.171875 70.0625 -159.390625 C 60.164062 -156.597656 52.046875 -151.800781 45.703125 -145 C 39.359375 -138.195312 34.601562 -130.234375 31.4375 -121.109375 C 28.269531 -111.984375 26.53125 -102.46875 26.21875 -92.5625 C 25.90625 -82.664062 26.910156 -73.3125 29.234375 -64.5 C 31.554688 -55.675781 35.304688 -47.050781 40.484375 -38.625 C 45.660156 -30.195312 51.882812 -22.8125 59.15625 -16.46875 C 66.425781 -10.125 74.46875 -5.640625 83.28125 -3.015625 C 92.101562 -0.390625 101.382812 -0.390625 111.125 -3.015625 C 116.382812 -4.253906 121.023438 -6.1875 125.046875 -8.8125 C 129.066406 -11.445312 132.703125 -14.3125 135.953125 -17.40625 Z M 135.953125 -17.40625 "/></g></g></g><g fill="#5acaff" fill-opacity="1"><g transform="translate(844.287459, 776.499921)"><g><path d="M 25.984375 -109.265625 L 25.984375 -1.859375 L 65.1875 -1.859375 C 75.238281 -1.859375 83.472656 -4.332031 89.890625 -9.28125 C 96.316406 -14.226562 101.617188 -22.582031 105.796875 -34.34375 L 100.453125 0 L 8.125 0 L 8.125 -163.796875 L 101.84375 -163.796875 L 101.84375 -145.234375 C 96.4375 -150.492188 91.179688 -154.320312 86.078125 -156.71875 C 80.972656 -159.113281 75.207031 -160.617188 68.78125 -161.234375 C 62.363281 -161.859375 54.441406 -162.171875 45.015625 -162.171875 L 25.984375 -162.171875 L 25.984375 -124.578125 C 25.984375 -114.066406 27.757812 -106.023438 31.3125 -100.453125 C 34.875 -94.890625 40.210938 -91.140625 47.328125 -89.203125 C 54.441406 -87.265625 63.335938 -86.296875 74.015625 -86.296875 L 74.015625 -67.96875 C 70.609375 -71.84375 66.546875 -74.898438 61.828125 -77.140625 C 57.109375 -79.378906 52.3125 -81.695312 47.4375 -84.09375 C 42.570312 -86.5 38.203125 -89.59375 34.328125 -93.375 C 30.460938 -97.164062 27.679688 -102.460938 25.984375 -109.265625 Z M 25.984375 -109.265625 "/></g></g></g><g fill="#5acaff" fill-opacity="1"><g transform="translate(972.582013, 776.499921)"><g><path d="M 63.34375 0 L 63.34375 -162.171875 C 55.144531 -162.171875 47.832031 -161.820312 41.40625 -161.125 C 34.988281 -160.425781 29.113281 -158.957031 23.78125 -156.71875 C 18.445312 -154.476562 13.226562 -150.878906 8.125 -145.921875 L 8.125 -164.03125 L 136.421875 -164.03125 L 136.421875 -145.921875 C 131.160156 -150.878906 125.859375 -154.476562 120.515625 -156.71875 C 115.179688 -158.957031 109.34375 -160.425781 103 -161.125 C 96.664062 -161.820312 89.398438 -162.171875 81.203125 -162.171875 L 81.203125 0 Z M 63.34375 0 "/></g></g></g><g fill="#5acaff" fill-opacity="1"><g transform="translate(733.909013, 859.050026)"><g><path d="M 4.78125 0 L 4.78125 -38.078125 L 17.703125 -38.078125 C 21.742188 -38.078125 25.113281 -37.226562 27.8125 -35.53125 C 30.507812 -33.832031 32.535156 -31.546875 33.890625 -28.671875 C 35.253906 -25.796875 35.9375 -22.601562 35.9375 -19.09375 C 35.9375 -15.226562 35.191406 -11.863281 33.703125 -9 C 32.222656 -6.144531 30.113281 -3.929688 27.375 -2.359375 C 24.644531 -0.785156 21.421875 0 17.703125 0 Z M 32.1875 -19.09375 C 32.1875 -22.132812 31.625 -24.832031 30.5 -27.1875 C 29.375 -29.550781 27.738281 -31.40625 25.59375 -32.75 C 23.445312 -34.09375 20.816406 -34.765625 17.703125 -34.765625 L 8.53125 -34.765625 L 8.53125 -3.328125 L 17.703125 -3.328125 C 20.847656 -3.328125 23.492188 -4.023438 25.640625 -5.421875 C 27.785156 -6.816406 29.410156 -8.703125 30.515625 -11.078125 C 31.628906 -13.453125 32.1875 -16.125 32.1875 -19.09375 Z M 32.1875 -19.09375 "/></g></g></g><g fill="#5acaff" fill-opacity="1"><g transform="translate(784.814366, 859.050026)"><g><path d="M 4.78125 0 L 4.78125 -38.078125 L 20.859375 -38.078125 C 22.503906 -38.078125 24.003906 -37.738281 25.359375 -37.0625 C 26.722656 -36.382812 27.914062 -35.460938 28.9375 -34.296875 C 29.957031 -33.140625 30.742188 -31.851562 31.296875 -30.4375 C 31.847656 -29.03125 32.125 -27.59375 32.125 -26.125 C 32.125 -24.300781 31.773438 -22.582031 31.078125 -20.96875 C 30.378906 -19.363281 29.394531 -18.003906 28.125 -16.890625 C 26.863281 -15.785156 25.375 -15.054688 23.65625 -14.703125 L 32.984375 0 L 28.75 0 L 19.796875 -14.046875 L 8.53125 -14.046875 L 8.53125 0 Z M 8.53125 -17.375 L 20.96875 -17.375 C 22.46875 -17.375 23.769531 -17.785156 24.875 -18.609375 C 25.988281 -19.429688 26.847656 -20.515625 27.453125 -21.859375 C 28.066406 -23.203125 28.375 -24.625 28.375 -26.125 C 28.375 -27.65625 28.023438 -29.070312 27.328125 -30.375 C 26.628906 -31.6875 25.695312 -32.742188 24.53125 -33.546875 C 23.375 -34.359375 22.082031 -34.765625 20.65625 -34.765625 L 8.53125 -34.765625 Z M 8.53125 -17.375 "/></g></g></g><g fill="#5acaff" fill-opacity="1"><g transform="translate(832.394249, 859.050026)"><g><path d="M 30.359375 -3.328125 L 30.359375 0 L 4.78125 0 L 4.78125 -38.078125 L 29.875 -38.078125 L 29.875 -34.765625 L 8.53125 -34.765625 L 8.53125 -21.03125 L 27.140625 -21.03125 L 27.140625 -17.859375 L 8.53125 -17.859375 L 8.53125 -3.328125 Z M 30.359375 -3.328125 "/></g></g></g><g fill="#5acaff" fill-opacity="1"><g transform="translate(877.614121, 859.050026)"><g><path d="M 27.03125 -30.953125 C 26.5 -31.554688 25.875 -32.097656 25.15625 -32.578125 C 24.4375 -33.066406 23.628906 -33.488281 22.734375 -33.84375 C 21.847656 -34.207031 20.894531 -34.492188 19.875 -34.703125 C 18.851562 -34.921875 17.769531 -35.03125 16.625 -35.03125 C 13.300781 -35.03125 10.859375 -34.394531 9.296875 -33.125 C 7.742188 -31.851562 6.96875 -30.128906 6.96875 -27.953125 C 6.96875 -26.441406 7.332031 -25.257812 8.0625 -24.40625 C 8.800781 -23.550781 9.957031 -22.851562 11.53125 -22.3125 C 13.101562 -21.78125 15.109375 -21.226562 17.546875 -20.65625 C 20.253906 -20.082031 22.59375 -19.398438 24.5625 -18.609375 C 26.53125 -17.828125 28.050781 -16.765625 29.125 -15.421875 C 30.195312 -14.078125 30.734375 -12.265625 30.734375 -9.984375 C 30.734375 -8.222656 30.394531 -6.695312 29.71875 -5.40625 C 29.039062 -4.125 28.09375 -3.050781 26.875 -2.1875 C 25.65625 -1.332031 24.207031 -0.695312 22.53125 -0.28125 C 20.851562 0.125 19.007812 0.328125 17 0.328125 C 15.03125 0.328125 13.144531 0.125 11.34375 -0.28125 C 9.539062 -0.695312 7.832031 -1.304688 6.21875 -2.109375 C 4.613281 -2.921875 3.113281 -3.953125 1.71875 -5.203125 L 3.59375 -8.265625 C 4.269531 -7.546875 5.082031 -6.875 6.03125 -6.25 C 6.976562 -5.625 8.03125 -5.0625 9.1875 -4.5625 C 10.351562 -4.0625 11.609375 -3.675781 12.953125 -3.40625 C 14.296875 -3.132812 15.679688 -3 17.109375 -3 C 20.148438 -3 22.519531 -3.550781 24.21875 -4.65625 C 25.914062 -5.769531 26.765625 -7.421875 26.765625 -9.609375 C 26.765625 -11.179688 26.332031 -12.441406 25.46875 -13.390625 C 24.613281 -14.335938 23.328125 -15.113281 21.609375 -15.71875 C 19.898438 -16.320312 17.789062 -16.910156 15.28125 -17.484375 C 12.632812 -18.097656 10.398438 -18.78125 8.578125 -19.53125 C 6.753906 -20.28125 5.382812 -21.269531 4.46875 -22.5 C 3.5625 -23.738281 3.109375 -25.375 3.109375 -27.40625 C 3.109375 -29.769531 3.6875 -31.765625 4.84375 -33.390625 C 6.007812 -35.015625 7.613281 -36.25 9.65625 -37.09375 C 11.695312 -37.9375 14.039062 -38.359375 16.6875 -38.359375 C 18.363281 -38.359375 19.925781 -38.1875 21.375 -37.84375 C 22.820312 -37.5 24.160156 -37.003906 25.390625 -36.359375 C 26.628906 -35.722656 27.785156 -34.921875 28.859375 -33.953125 Z M 27.03125 -30.953125 "/></g></g></g><g fill="#5acaff" fill-opacity="1"><g transform="translate(922.726715, 859.050026)"><g><path d="M 27.03125 -30.953125 C 26.5 -31.554688 25.875 -32.097656 25.15625 -32.578125 C 24.4375 -33.066406 23.628906 -33.488281 22.734375 -33.84375 C 21.847656 -34.207031 20.894531 -34.492188 19.875 -34.703125 C 18.851562 -34.921875 17.769531 -35.03125 16.625 -35.03125 C 13.300781 -35.03125 10.859375 -34.394531 9.296875 -33.125 C 7.742188 -31.851562 6.96875 -30.128906 6.96875 -27.953125 C 6.96875 -26.441406 7.332031 -25.257812 8.0625 -24.40625 C 8.800781 -23.550781 9.957031 -22.851562 11.53125 -22.3125 C 13.101562 -21.78125 15.109375 -21.226562 17.546875 -20.65625 C 20.253906 -20.082031 22.59375 -19.398438 24.5625 -18.609375 C 26.53125 -17.828125 28.050781 -16.765625 29.125 -15.421875 C 30.195312 -14.078125 30.734375 -12.265625 30.734375 -9.984375 C 30.734375 -8.222656 30.394531 -6.695312 29.71875 -5.40625 C 29.039062 -4.125 28.09375 -3.050781 26.875 -2.1875 C 25.65625 -1.332031 24.207031 -0.695312 22.53125 -0.28125 C 20.851562 0.125 19.007812 0.328125 17 0.328125 C 15.03125 0.328125 13.144531 0.125 11.34375 -0.28125 C 9.539062 -0.695312 7.832031 -1.304688 6.21875 -2.109375 C 4.613281 -2.921875 3.113281 -3.953125 1.71875 -5.203125 L 3.59375 -8.265625 C 4.269531 -7.546875 5.082031 -6.875 6.03125 -6.25 C 6.976562 -5.625 8.03125 -5.0625 9.1875 -4.5625 C 10.351562 -4.0625 11.609375 -3.675781 12.953125 -3.40625 C 14.296875 -3.132812 15.679688 -3 17.109375 -3 C 20.148438 -3 22.519531 -3.550781 24.21875 -4.65625 C 25.914062 -5.769531 26.765625 -7.421875 26.765625 -9.609375 C 26.765625 -11.179688 26.332031 -12.441406 25.46875 -13.390625 C 24.613281 -14.335938 23.328125 -15.113281 21.609375 -15.71875 C 19.898438 -16.320312 17.789062 -16.910156 15.28125 -17.484375 C 12.632812 -18.097656 10.398438 -18.78125 8.578125 -19.53125 C 6.753906 -20.28125 5.382812 -21.269531 4.46875 -22.5 C 3.5625 -23.738281 3.109375 -25.375 3.109375 -27.40625 C 3.109375 -29.769531 3.6875 -31.765625 4.84375 -33.390625 C 6.007812 -35.015625 7.613281 -36.25 9.65625 -37.09375 C 11.695312 -37.9375 14.039062 -38.359375 16.6875 -38.359375 C 18.363281 -38.359375 19.925781 -38.1875 21.375 -37.84375 C 22.820312 -37.5 24.160156 -37.003906 25.390625 -36.359375 C 26.628906 -35.722656 27.785156 -34.921875 28.859375 -33.953125 Z M 27.03125 -30.953125 "/></g></g></g><g fill="#5acaff" fill-opacity="1"><g transform="translate(967.83932, 859.050026)"><g><path d="M 30.359375 -3.328125 L 30.359375 0 L 4.78125 0 L 4.78125 -38.078125 L 29.875 -38.078125 L 29.875 -34.765625 L 8.53125 -34.765625 L 8.53125 -21.03125 L 27.140625 -21.03125 L 27.140625 -17.859375 L 8.53125 -17.859375 L 8.53125 -3.328125 Z M 30.359375 -3.328125 "/></g></g></g><g fill="#5acaff" fill-opacity="1"><g transform="translate(1013.059181, 859.050026)"><g><path d="M 4.78125 0 L 4.78125 -38.078125 L 17.703125 -38.078125 C 21.742188 -38.078125 25.113281 -37.226562 27.8125 -35.53125 C 30.507812 -33.832031 32.535156 -31.546875 33.890625 -28.671875 C 35.253906 -25.796875 35.9375 -22.601562 35.9375 -19.09375 C 35.9375 -15.226562 35.191406 -11.863281 33.703125 -9 C 32.222656 -6.144531 30.113281 -3.929688 27.375 -2.359375 C 24.644531 -0.785156 21.421875 0 17.703125 0 Z M 32.1875 -19.09375 C 32.1875 -22.132812 31.625 -24.832031 30.5 -27.1875 C 29.375 -29.550781 27.738281 -31.40625 25.59375 -32.75 C 23.445312 -34.09375 20.816406 -34.765625 17.703125 -34.765625 L 8.53125 -34.765625 L 8.53125 -3.328125 L 17.703125 -3.328125 C 20.847656 -3.328125 23.492188 -4.023438 25.640625 -5.421875 C 27.785156 -6.816406 29.410156 -8.703125 30.515625 -11.078125 C 31.628906 -13.453125 32.1875 -16.125 32.1875 -19.09375 Z M 32.1875 -19.09375 "/></g></g></g></svg>